<?xml version="1.0" encoding="UTF-8" standalone="no"?>
<svg
   xmlns:dc="http://purl.org/dc/elements/1.1/"
   xmlns:cc="http://creativecommons.org/ns#"
   xmlns:rdf="http://www.w3.org/1999/02/22-rdf-syntax-ns#"
   xmlns:svg="http://www.w3.org/2000/svg"
   xmlns="http://www.w3.org/2000/svg"
   id="Ebene_1"
   data-name="Ebene 1"
   viewBox="0 0 1166.18 651.47713"
   version="1.1"
   width="1166.1801"
   height="651.47711">
  <metadata
     id="metadata36">
    <rdf:RDF>
      <cc:Work
         rdf:about="">
        <dc:format>image/svg+xml</dc:format>
        <dc:type
           rdf:resource="http://purl.org/dc/dcmitype/StillImage" />
        <dc:title></dc:title>
      </cc:Work>
    </rdf:RDF>
  </metadata>
  <defs
     id="defs15">
    <style
       id="style2">.cls-1{fill:url(#Examweb-Verlauf_II);}.cls-2{fill:#1d1d1b;}</style>
    <linearGradient
       id="Examweb-Verlauf_II"
       x1="241.95"
       y1="41.509998"
       x2="41.509998"
       y2="241.95"
       gradientUnits="userSpaceOnUse"
       gradientTransform="translate(0,368.01714)">
      <stop
         offset="0.2"
         stop-color="#981917"
         id="stop4" />
      <stop
         offset="0.36"
         stop-color="#a11a1b"
         id="stop6" />
      <stop
         offset="0.63"
         stop-color="#b91c25"
         id="stop8" />
      <stop
         offset="0.97"
         stop-color="#e12136"
         id="stop10" />
      <stop
         offset="1"
         stop-color="#e52138"
         id="stop12" />
    </linearGradient>
  </defs>
  <circle
     style="fill:#ffffff"
     id="circle906"
     r="134.64999"
     cy="509.17084"
     cx="142.3063"
     class="cls-1" />
  <path
     class="cls-1"
     d="m 141.73,368.01714 a 141.73,141.73 0 1 0 141.73,141.73 141.74,141.74 0 0 0 -141.73,-141.73 z m 81.75,84.84 H 150 l -17.88,38.91 h 61.47 l -12.93,28.14 h -60.89 l -20.92,45.52 h 81.25 l -13.49,29.36 H 41.5 l 78.14,-170.08 H 242 Z"
     id="path17"
     style="fill:url(#Examweb-Verlauf_II)" />
  <path
     class="cls-2"
     d="m 296.49,434.90714 h 87.82 l -4,25.5 h -52.77 v 35.26 h 44.13 v 25.5 H 328 v 41.25 h 58.3 v 26.6 h -89.81 z"
     id="path19"
     style="fill:#1d1d1b" />
  <path
     class="cls-2"
     d="m 455.26,568.17714 c -0.44,-0.89 -1.11,-2.18 -2,-3.88 -0.89,-1.7 -1.81,-3.44 -2.77,-5.21 -0.96,-1.77 -1.89,-3.4 -2.78,-4.88 a 21.14,21.14 0 0 1 -1.33,-2.66 q -0.88,2 -3.77,8.21 -3.11,6.21 -7.54,13.52 l -9.52,15.74 h -38.14 l 41.91,-60.54 -31.49,-47.68 30.82,-8.64 q 3.11,5.31 5.33,9 c 1.47,2.44 2.77,4.69 3.88,6.76 1.11,2.07 2.14,4 3.1,5.88 0.96,1.88 2,3.88 3,6.09 0.59,1.19 1.22,2.48 1.89,3.89 0.67,1.41 1.22,2.62 1.66,3.65 0.3,-0.88 1.29,-3.25 3,-7.09 1.71,-3.84 4,-8.87 7,-15.08 q 1.33,-2.88 3,-5.77 1.67,-2.89 2.33,-4 h 35 l -33.71,52.33 40.8,61.2 h -37.69 z"
     id="path21"
     style="fill:#1d1d1b" />
  <path
     class="cls-2"
     d="m 582.44,589.01714 a 24.55,24.55 0 0 1 -6.55,-8 c -1.18,1.19 -2.33,2.3 -3.43,3.33 a 23.19,23.19 0 0 1 -3.46,2.67 q -8.43,6.21 -22.84,6.21 -19.29,0 -29.16,-9.09 -9.87,-9.09 -9.87,-26.39 0,-20.18 13.53,-29.6 13.53,-9.42 41,-9.43 H 565 a 19.15,19.15 0 0 1 3.32,0.22 v -4.65 q 0,-9.54 -2.55,-13.2 -2.55,-3.66 -10.75,-3.65 a 40.84,40.84 0 0 0 -15.3,3.32 99.47,99.47 0 0 0 -17.52,9.54 l -12.61,-21.28 a 87.68,87.68 0 0 1 8.43,-4.88 q 4,-2 10,-4.43 a 86.1,86.1 0 0 1 15.85,-5.1 73.65,73.65 0 0 1 15.13,-1.59 q 14.64,0 24,5.1 a 26.13,26.13 0 0 1 12.64,14.64 20.42,20.42 0 0 1 1.55,5.21 48.47,48.47 0 0 1 0.45,7.43 v 7.76 l -0.64,38.17 q 0,4.65 0.22,8.09 a 21.31,21.31 0 0 0 1.33,6.32 19.33,19.33 0 0 0 3.22,5.44 35.81,35.81 0 0 0 5.87,5.43 l -15.74,18.18 a 40,40 0 0 1 -9.46,-5.77 z m -37.44,-46.12 q -6.11,3.56 -6.1,13.75 0,6.66 3.66,10.76 a 12.07,12.07 0 0 0 9.43,4.1 q 8.87,0 15.52,-7.76 l 0.44,-24.39 h -1.33 q -15.56,0 -21.62,3.54 z"
     id="path23"
     style="fill:#1d1d1b" />
  <path
     class="cls-2"
     d="m 744.42,514.07714 c 0,-6.66 -0.55,-11 -1.66,-13.09 -1.11,-2.09 -3.66,-3.1 -7.65,-3.1 a 22.5,22.5 0 0 0 -9.54,2.55 42.59,42.59 0 0 0 -10.2,7 v 81.58 h -28.16 v -73.65 q 0,-10.62 -2,-14 -2,-3.38 -8.27,-3.43 a 25.86,25.86 0 0 0 -9.49,2.1 34.42,34.42 0 0 0 -10.17,6.53 v 82.45 h -28.83 v -79.16 c 0,-4.13 -0.08,-7.72 -0.22,-10.75 -0.14,-3.03 -0.38,-5.66 -0.67,-7.87 a 37.38,37.38 0 0 0 -1.22,-5.88 17.15,17.15 0 0 0 -2.11,-4.55 l 26.83,-7.31 a 21.72,21.72 0 0 1 2.33,4.76 61.58,61.58 0 0 1 1.67,6.77 38.24,38.24 0 0 1 27.71,-11.53 q 14,0 23.07,9.31 c 0.73,0.74 1.47,1.55 2.21,2.44 a 28.67,28.67 0 0 1 2.22,3.1 q 7.76,-8 15.3,-11.42 a 40.15,40.15 0 0 1 16.85,-3.43 42,42 0 0 1 12.64,1.88 26.7,26.7 0 0 1 9.76,5.21 18.78,18.78 0 0 1 6.65,10 q 1.77,6.21 1.78,17.74 v 80.69 h -28.83 z"
     id="path25"
     style="fill:#1d1d1b" />
  <path
     class="cls-2"
     d="m 883,589.01714 -10.2,-39 q -1.77,-6.87 -3.55,-14.3 c -1.18,-5 -2.14,-9.35 -2.88,-13.2 l -1.11,-6 c -0.15,-1.33 -0.37,-3.11 -0.66,-5.33 q -0.23,2 -0.45,3.33 c -0.15,0.89 -0.29,1.81 -0.44,2.77 -0.15,0.96 -0.37,2.11 -0.66,3.44 -0.29,1.33 -0.67,3 -1.11,5.1 q -0.9,3.76 -2.11,8.87 -1.21,5.11 -2.66,10.75 -1.44,5.65 -2.77,11 -1.33,5.35 -2.22,9.31 l -5.76,23.26 h -27.71 l -31.05,-111.53 29.49,-3.33 9.32,43.69 c 0.74,3.25 1.47,6.91 2.22,11 0.75,4.09 1.44,7.91 2.1,11.53 0.66,3.62 1.14,6.69 1.44,9.2 l 0.67,3.55 0.44,-3.32 q 0.66,-3.56 1.67,-9.21 1.01,-5.65 2.54,-12.63 1.56,-7 3.55,-14.31 l 10.65,-38.14 h 27.94 l 9.09,37.5 q 2,8 3.55,15.19 1.55,7.19 2.67,12.7 c 0.74,3.69 1.25,6.65 1.55,8.87 l 0.66,3.32 q 0.22,-1.77 0.78,-5.76 0.56,-3.99 1.44,-9.21 0.89,-5.21 1.89,-11 1,-5.79 2.1,-11.09 l 8.65,-40.58 h 30.6 l -32.38,113.56 z"
     id="path27"
     style="fill:#1d1d1b" />
  <path
     class="cls-2"
     d="m 982.58,542.45714 q 0,13.31 6.23,20.4 6.23,7.09 17.8,7.1 15.12,0 28.92,-11.31 l 11.57,17.74 q -19.56,15.74 -42.89,15.74 a 56.64,56.64 0 0 1 -22.34,-4.21 48.17,48.17 0 0 1 -16.87,-11.9 52.63,52.63 0 0 1 -10.78,-18.51 73.18,73.18 0 0 1 -3.78,-24.17 q 0,-15.3 3.34,-25.95 a 51.18,51.18 0 0 1 10.89,-19.07 46.69,46.69 0 0 1 15.77,-11.53 49.84,49.84 0 0 1 20,-3.77 55,55 0 0 1 18.67,3.11 36.41,36.41 0 0 1 14.22,8.87 48.51,48.51 0 0 1 11.45,19.84 q 3.66,11.86 3.66,29.83 v 6.87 h -65.86 z m 34,-34.15 a 20.14,20.14 0 0 0 -2.77,-6.87 q -4.44,-6.66 -13.08,-6.66 -8.43,0 -13.08,6.32 -4.65,6.32 -4.65,18.3 v 0.44 h 34.37 v -1.33 a 52.66,52.66 0 0 0 -0.76,-10.2 z"
     id="path29"
     style="fill:#1d1d1b" />
  <path
     class="cls-2"
     d="m 1166.18,530.25714 q 0,17.3 -5.21,30.49 a 50.74,50.74 0 0 1 -15.85,21.62 39.87,39.87 0 0 1 -11.76,6.77 39.26,39.26 0 0 1 -13.08,2.1 36.66,36.66 0 0 1 -14.41,-2.55 31.28,31.28 0 0 1 -10.87,-7.87 44.73,44.73 0 0 1 -1.11,4.44 19.34,19.34 0 0 1 -2,3.77 h -26.61 a 35.69,35.69 0 0 0 1.44,-3.77 27,27 0 0 0 0.89,-4.33 c 0.22,-1.7 0.36,-3.8 0.44,-6.32 0.08,-2.52 0.11,-5.76 0.11,-9.75 v -105.11 q 0,-10.65 -0.44,-16.85 a 76,76 0 0 0 -1.55,-11.09 l 30.37,-7.1 c 0.45,3.85 0.74,7.21 0.89,10.09 0.15,2.88 0.22,6.25 0.22,10.09 v 26.83 c 0,1.63 0,3.48 -0.11,5.55 a 17.66,17.66 0 0 1 -0.55,4.43 q 8.41,-9.09 24.17,-9.09 a 42.83,42.83 0 0 1 18.74,4 39.59,39.59 0 0 1 14.19,11.53 53.9,53.9 0 0 1 9,18.18 85.51,85.51 0 0 1 3.09,23.94 z m -33.7,0.56 c 0,-5.15 -0.08,-9 -0.22,-11.6 a 44.57,44.57 0 0 0 -1.11,-7.63 q -1.79,-7.29 -6.1,-10.83 a 15.51,15.51 0 0 0 -10.05,-3.54 16.32,16.32 0 0 0 -9.87,3 47.7,47.7 0 0 0 -7,6.08 v 52.16 a 54,54 0 0 0 6.87,5 18.36,18.36 0 0 0 9.76,2.32 q 10.86,0 14.41,-8.84 a 36.56,36.56 0 0 0 2.66,-10.16 141.26,141.26 0 0 0 0.65,-15.96 z"
     id="path31"
     style="fill:#1d1d1b" />
</svg>
