<svg xmlns="http://www.w3.org/2000/svg" xmlns:xlink="http://www.w3.org/1999/xlink" width="647.798" height="362.097" viewBox="0 0 518.238 289.677"><defs><symbol id="a" overflow="visible"><path d="M4.36 0l14.53-52.969h14.266L21.078-8.859h35.328L54 0zm0 0"/></symbol><symbol id="b" overflow="visible"><path d="M52.86-15.969H18.75a13.14 13.14 0 00-.047.938c0 2.554.953 4.617 2.86 6.187 1.914 1.563 4.25 2.344 7 2.344 4.507 0 8.03-1.785 10.562-5.36l12.172 1.563c-2.367 3.73-5.531 6.531-9.5 8.406C37.836-.023 33.395.906 28.469.906c-6.762 0-12.258-1.629-16.485-4.89-4.23-3.27-6.343-7.594-6.343-12.97 0-5.25 1.91-9.921 5.734-14.015 5.207-5.539 12.64-8.312 22.297-8.312 6.156 0 11.05 1.453 14.687 4.36 3.633 2.905 5.454 6.968 5.454 12.187 0 2.511-.32 4.765-.954 6.765zm-11.47-6.328c.032-.457.047-.805.047-1.047 0-2.843-.84-4.972-2.515-6.39-1.668-1.426-3.906-2.141-6.719-2.141-2.812 0-5.336.809-7.562 2.422-2.22 1.617-3.727 4-4.516 7.156zm0 0"/></symbol><symbol id="c" overflow="visible"><path d="M23.063-27.5l-13.266-.86c1.52-3.425 4.164-6.1 7.937-8.03 3.77-1.926 8.77-2.891 15-2.891 6.47 0 11.25.996 14.344 2.984 3.094 1.992 4.64 4.418 4.64 7.281 0 1.157-.136 2.387-.406 3.688-.261 1.305-1.199 4.726-2.812 10.265-1.324 4.575-1.984 7.778-1.984 9.61C46.516-3.816 46.89-2 47.64 0H34.438a15.448 15.448 0 01-1-4.344c-1.993 1.688-4.282 2.985-6.876 3.89-2.585.907-5.187 1.36-7.812 1.36-4.168 0-7.61-1.039-10.328-3.125C5.71-4.3 4.359-6.984 4.359-10.266c0-3.656 1.489-6.578 4.47-8.765 2.987-2.196 8.316-3.524 15.983-3.985 6.477-.406 10.805-.898 12.985-1.484.57-1.445.86-2.602.86-3.469 0-1.101-.59-2.031-1.766-2.781-1.168-.75-2.903-1.125-5.203-1.125-2.43 0-4.344.383-5.75 1.14-1.407.762-2.368 1.84-2.875 3.235zM36-17.89c-.824.167-1.914.324-3.266.468-6.824.625-11.277 1.543-13.359 2.75-1.492.867-2.234 2.031-2.234 3.5 0 1.211.566 2.23 1.703 3.063 1.144.836 2.644 1.25 4.5 1.25 2.05 0 3.984-.38 5.797-1.141 1.82-.758 3.18-1.734 4.078-2.922.906-1.195 1.707-3.062 2.406-5.594zm0 0"/></symbol><symbol id="d" overflow="visible"><path d="M13.64-38.375h12.688l-2.031 7.438c4.738-5.563 9.867-8.344 15.39-8.344 1.958 0 4.055.375 6.297 1.125l-5.203 8.484a15.06 15.06 0 00-3.937-.5c-2.336 0-4.711.68-7.125 2.031C27.3-26.797 25.414-25 24.062-22.75c-1.355 2.25-2.699 5.824-4.03 10.719L16.718 0H3.125zm0 0"/></symbol><symbol id="e" overflow="visible"><path d="M14.594-38.375h12.875l-1.328 4.984c3.218-2.113 6.222-3.625 9.015-4.53 2.801-.907 5.75-1.36 8.844-1.36 4.133 0 7.395.906 9.781 2.718 2.383 1.805 3.578 4.2 3.578 7.188 0 1.344-.523 3.898-1.562 7.656L49.875 0H36.281l5.969-21.781c.883-3.258 1.328-5.203 1.328-5.828 0-1.32-.516-2.364-1.547-3.125-1.023-.758-2.449-1.141-4.281-1.141-1.992 0-4.203.64-6.64 1.922-2.43 1.273-4.337 2.96-5.72 5.062-1.011 1.493-2.148 4.54-3.406 9.141L17.672 0H4.078zm0 0"/></symbol><symbol id="f" overflow="visible"><path d="M56.453 0H43.672l-2.469-24.422L25.86 0H13.266L6.969-38.375h12.078l3.5 25.734 15.672-25.734h12.36l1.718 25.734 15.578-25.734h13.64zm0 0"/></symbol><symbol id="g" overflow="visible"><path d="M3.5 0L18-52.969h13.64l-4.874 17.703c2.488-1.445 4.812-2.476 6.968-3.093 2.164-.614 4.532-.922 7.094-.922 5.3 0 9.547 1.36 12.734 4.078 3.196 2.71 4.797 6.652 4.797 11.828 0 3.492-.75 6.883-2.25 10.172-1.5 3.281-3.507 5.953-6.015 8.015-2.512 2.063-5.153 3.594-7.922 4.594-2.762 1-5.656 1.5-8.688 1.5-7.199 0-12.484-2.41-15.859-7.234L15.859 0zm18.328-15.64c0 2.574.953 4.667 2.86 6.28 1.914 1.618 4.171 2.422 6.765 2.422 2.27 0 4.438-.625 6.5-1.875 2.07-1.257 3.797-3.257 5.172-6 1.375-2.75 2.063-5.519 2.063-8.312 0-2.719-.93-4.852-2.782-6.406-1.843-1.563-4.074-2.344-6.687-2.344-3.418 0-6.356 1.21-8.813 3.625-3.386 3.293-5.078 7.496-5.078 12.61zm0 0"/></symbol></defs><path d="M514.2 148.59c0 62.602-114.19 113.351-255.05 113.351-140.863 0-255.049-50.748-255.049-113.352 0-62.604 114.188-113.356 255.048-113.356s255.052 50.752 255.052 113.356zm0 0" fill="none" stroke="#7a7878" stroke-width="7.998" stroke-linejoin="round" stroke-miterlimit="10"/><path d="M368.945 286.61l25.43-47.413h-188.98L332.33 2.91h-76.249l-152.62 283.7zm0 0" fill="#006784" stroke="#006784" stroke-width="5.897" stroke-linejoin="round" stroke-miterlimit="10"/><path fill="#222" paint-order="stroke markers fill" d="M155.201 114.673h124.253v64.642H155.201z"/><g fill="#fff" transform="matrix(.99973 0 0 .99973 -39.067 -54.497)" stroke-width="7.344" paint-order="stroke markers fill"><use x="71.526" y="220.823" width="595.28" height="841.89" xlink:href="#a"/><use x="130.892" y="220.823" width="595.28" height="841.89" xlink:href="#b"/><use x="184.914" y="220.823" width="595.28" height="841.89" xlink:href="#c"/><use x="238.935" y="220.823" width="595.28" height="841.89" xlink:href="#d"/><use x="276.731" y="220.823" width="595.28" height="841.89" xlink:href="#e"/><use x="336.096" y="220.823" width="595.28" height="841.89" xlink:href="#f"/><use x="411.688" y="220.823" width="595.28" height="841.89" xlink:href="#b"/><use x="465.709" y="220.823" width="595.28" height="841.89" xlink:href="#g"/></g></svg>
