<svg xmlns="http://www.w3.org/2000/svg" xmlns:xlink="http://www.w3.org/1999/xlink" width="647.798" height="362.097" viewBox="0 0 518.238 289.677"><defs><symbol id="a" overflow="visible"><path d="M23.313 0L175.89-283.469h76.28L125.267-47.375h189.062L288.891 0zm0 0"/></symbol><symbol id="b" overflow="visible"><path d="M4.36 0l14.53-52.969h14.266L21.078-8.859h35.328L54 0zm0 0"/></symbol><symbol id="c" overflow="visible"><path d="M52.86-15.969H18.75a13.14 13.14 0 00-.047.938c0 2.554.953 4.617 2.86 6.187 1.914 1.563 4.25 2.344 7 2.344 4.507 0 8.03-1.785 10.562-5.36l12.172 1.563c-2.367 3.73-5.531 6.531-9.5 8.406C37.836-.023 33.395.906 28.469.906c-6.762 0-12.258-1.629-16.485-4.89-4.23-3.27-6.343-7.594-6.343-12.97 0-5.25 1.91-9.921 5.734-14.015 5.207-5.539 12.64-8.312 22.297-8.312 6.156 0 11.05 1.453 14.687 4.36 3.633 2.905 5.454 6.968 5.454 12.187 0 2.511-.32 4.765-.954 6.765zm-11.47-6.328c.032-.457.047-.805.047-1.047 0-2.843-.84-4.972-2.515-6.39-1.668-1.426-3.906-2.141-6.719-2.141-2.812 0-5.336.809-7.562 2.422-2.22 1.617-3.727 4-4.516 7.156zm0 0"/></symbol><symbol id="d" overflow="visible"><path d="M23.063-27.5l-13.266-.86c1.52-3.425 4.164-6.1 7.937-8.03 3.77-1.926 8.77-2.891 15-2.891 6.47 0 11.25.996 14.344 2.984 3.094 1.992 4.64 4.418 4.64 7.281 0 1.157-.136 2.387-.406 3.688-.261 1.305-1.199 4.726-2.812 10.265-1.324 4.575-1.984 7.778-1.984 9.61C46.516-3.816 46.89-2 47.64 0H34.438a15.448 15.448 0 01-1-4.344c-1.993 1.688-4.282 2.985-6.876 3.89-2.585.907-5.187 1.36-7.812 1.36-4.168 0-7.61-1.039-10.328-3.125C5.71-4.3 4.359-6.984 4.359-10.266c0-3.656 1.489-6.578 4.47-8.765 2.987-2.196 8.316-3.524 15.983-3.985 6.477-.406 10.805-.898 12.985-1.484.57-1.445.86-2.602.86-3.469 0-1.101-.59-2.031-1.766-2.781-1.168-.75-2.903-1.125-5.203-1.125-2.43 0-4.344.383-5.75 1.14-1.407.762-2.368 1.84-2.875 3.235zM36-17.89c-.824.167-1.914.324-3.266.468-6.824.625-11.277 1.543-13.359 2.75-1.492.867-2.234 2.031-2.234 3.5 0 1.211.566 2.23 1.703 3.063 1.144.836 2.644 1.25 4.5 1.25 2.05 0 3.984-.38 5.797-1.141 1.82-.758 3.18-1.734 4.078-2.922.906-1.195 1.707-3.062 2.406-5.594zm0 0"/></symbol><symbol id="e" overflow="visible"><path d="M13.64-38.375h12.688l-2.031 7.438c4.738-5.563 9.867-8.344 15.39-8.344 1.958 0 4.055.375 6.297 1.125l-5.203 8.484a15.06 15.06 0 00-3.937-.5c-2.336 0-4.711.68-7.125 2.031C27.3-26.797 25.414-25 24.062-22.75c-1.355 2.25-2.699 5.824-4.03 10.719L16.718 0H3.125zm0 0"/></symbol><symbol id="f" overflow="visible"><path d="M14.594-38.375h12.875l-1.328 4.984c3.218-2.113 6.222-3.625 9.015-4.53 2.801-.907 5.75-1.36 8.844-1.36 4.133 0 7.395.906 9.781 2.718 2.383 1.805 3.578 4.2 3.578 7.188 0 1.344-.523 3.898-1.562 7.656L49.875 0H36.281l5.969-21.781c.883-3.258 1.328-5.203 1.328-5.828 0-1.32-.516-2.364-1.547-3.125-1.023-.758-2.449-1.141-4.281-1.141-1.992 0-4.203.64-6.64 1.922-2.43 1.273-4.337 2.96-5.72 5.062-1.011 1.493-2.148 4.54-3.406 9.141L17.672 0H4.078zm0 0"/></symbol><symbol id="g" overflow="visible"><path d="M56.453 0H43.672l-2.469-24.422L25.86 0H13.266L6.969-38.375h12.078l3.5 25.734 15.672-25.734h12.36l1.718 25.734 15.578-25.734h13.64zm0 0"/></symbol><symbol id="h" overflow="visible"><path d="M3.5 0L18-52.969h13.64l-4.874 17.703c2.488-1.445 4.812-2.476 6.968-3.093 2.164-.614 4.532-.922 7.094-.922 5.3 0 9.547 1.36 12.734 4.078 3.196 2.71 4.797 6.652 4.797 11.828 0 3.492-.75 6.883-2.25 10.172-1.5 3.281-3.507 5.953-6.015 8.015-2.512 2.063-5.153 3.594-7.922 4.594-2.762 1-5.656 1.5-8.688 1.5-7.199 0-12.484-2.41-15.859-7.234L15.859 0zm18.328-15.64c0 2.574.953 4.667 2.86 6.28 1.914 1.618 4.171 2.422 6.765 2.422 2.27 0 4.438-.625 6.5-1.875 2.07-1.257 3.797-3.257 5.172-6 1.375-2.75 2.063-5.519 2.063-8.312 0-2.719-.93-4.852-2.782-6.406-1.843-1.563-4.074-2.344-6.687-2.344-3.418 0-6.356 1.21-8.813 3.625-3.386 3.293-5.078 7.496-5.078 12.61zm0 0"/></symbol></defs><path d="M514.238 148.669c0 62.62-114.222 113.383-255.12 113.383C118.217 262.052 4 211.29 4 148.669 4 86.048 118.219 35.282 259.117 35.282c140.899 0 255.121 50.766 255.121 113.387" fill="#fff"/><path d="M514.238 148.669c0 62.62-114.222 113.383-255.12 113.383C118.217 262.052 4 211.29 4 148.669 4 86.048 118.219 35.282 259.117 35.282c140.899 0 255.121 50.766 255.121 113.387zm0 0" fill="none" stroke="#7a7878" stroke-width="8" stroke-linejoin="round" stroke-miterlimit="10"/><use x="119.31" y="341.207" width="595.28" height="841.89" xlink:href="#a" fill="#006784" transform="translate(-39.18 -54.472)"/><path d="M0 .001l12.925-49.048h-189.032l64.614-244.438h-76.27L-265.556.001zm0 0" transform="matrix(1 0 -.2551 .96692 368.943 286.726)" fill="none" stroke="#383335" stroke-width="6" stroke-linejoin="round" stroke-miterlimit="10"/><g fill="#fff" transform="translate(-39.18 -54.472)"><use x="71.526" y="220.823" width="595.28" height="841.89" xlink:href="#b"/><use x="130.892" y="220.823" width="595.28" height="841.89" xlink:href="#c"/><use x="184.914" y="220.823" width="595.28" height="841.89" xlink:href="#d"/><use x="238.935" y="220.823" width="595.28" height="841.89" xlink:href="#e"/><use x="276.731" y="220.823" width="595.28" height="841.89" xlink:href="#f"/><use x="336.096" y="220.823" width="595.28" height="841.89" xlink:href="#g"/><use x="411.688" y="220.823" width="595.28" height="841.89" xlink:href="#c"/><use x="465.709" y="220.823" width="595.28" height="841.89" xlink:href="#h"/></g><path d="M86.43 166.352l2.422-8.793H53.457l12.098-43.82H51.277l-14.566 52.613zm0 0M145.59 143.778c0-5.191-1.817-9.23-5.453-12.113-3.64-2.883-8.54-4.324-14.707-4.324-9.68 0-17.13 2.75-22.348 8.254-3.828 4.066-5.738 8.71-5.738 13.925 0 5.336 2.117 9.625 6.355 12.864 4.238 3.246 9.742 4.867 16.512 4.867 4.934 0 9.383-.93 13.355-2.785 3.965-1.852 7.137-4.633 9.512-8.344l-12.195-1.543c-2.531 3.543-6.055 5.312-10.578 5.312-2.75 0-5.086-.777-6.996-2.332-1.914-1.554-2.872-3.601-2.872-6.136 0-.215.016-.528.047-.934h34.157c.632-1.984.949-4.223.949-6.71zm-33.73.43c.788-3.133 2.3-5.504 4.53-7.106 2.231-1.601 4.75-2.406 7.567-2.406 2.816 0 5.059.707 6.738 2.117 1.676 1.414 2.512 3.532 2.512 6.356 0 .238-.016.586-.047 1.039zm0 0M171.707 135.829c1.406-.754 3.328-1.133 5.766-1.133 2.308 0 4.047.371 5.218 1.113 1.168.743 1.754 1.664 1.754 2.766 0 .86-.285 2.008-.851 3.445-2.184.575-6.52 1.063-13 1.47-7.688.456-13.024 1.772-16.012 3.948-2.988 2.176-4.484 5.082-4.484 8.719 0 3.254 1.359 5.918 4.082 7.988 2.718 2.07 6.168 3.102 10.34 3.102 2.625 0 5.234-.445 7.828-1.344 2.593-.898 4.886-2.183 6.879-3.86a15.68 15.68 0 00.996 4.31h13.238c-.762-1.989-1.14-3.794-1.14-5.423 0-1.816.663-5 1.991-9.543 1.614-5.503 2.555-8.902 2.825-10.195a17.95 17.95 0 00.402-3.66c0-2.848-1.55-5.258-4.648-7.23-3.102-1.973-7.891-2.961-14.375-2.961-6.23 0-11.239.957-15.016 2.87-3.777 1.915-6.43 4.571-7.945 7.97l13.28.859c.509-1.387 1.466-2.457 2.872-3.211zm9.703 14.121c-.695 2.512-1.496 4.36-2.394 5.543-.903 1.187-2.262 2.156-4.082 2.91-1.82.754-3.754 1.129-5.813 1.129-1.863 0-3.367-.414-4.508-1.238-1.136-.824-1.707-1.836-1.707-3.032 0-1.46.742-2.62 2.23-3.48 2.09-1.2 6.548-2.105 13.38-2.73 1.359-.141 2.449-.297 3.273-.465zm0 0M202.902 166.352h13.614l3.324-11.953c1.328-4.855 2.672-8.402 4.031-10.64 1.36-2.239 3.25-4.024 5.668-5.368 2.422-1.336 4.8-2.007 7.14-2.007 1.391 0 2.704.168 3.938.503l5.219-8.433c-2.246-.742-4.348-1.113-6.309-1.113-5.535 0-10.675 2.761-15.418 8.289l2.04-7.39h-12.715zm0 0M241.66 166.352h13.617l4.317-15.648c1.265-4.57 2.402-7.598 3.418-9.082 1.39-2.078 3.304-3.754 5.738-5.024 2.434-1.265 4.648-1.902 6.64-1.902 1.837 0 3.266.379 4.297 1.133 1.028.754 1.54 1.789 1.54 3.101 0 .625-.442 2.551-1.329 5.782l-5.976 21.64h13.617l5.93-21.57c1.043-3.734 1.566-6.27 1.566-7.61 0-2.964-1.195-5.347-3.582-7.14-2.39-1.793-5.656-2.691-9.797-2.691-3.101 0-6.05.449-8.847 1.343-2.801.899-5.817 2.403-9.04 4.504l1.329-4.949H252.19zm0 0M378.578 128.24h-13.664l-15.605 25.55-1.707-25.55h-12.383l-15.707 25.55-3.508-25.55h-12.098l6.309 38.112h12.62l15.372-24.261 2.465 24.261h12.808zm0 0M426.402 143.778c0-5.191-1.82-9.23-5.457-12.113-3.636-2.883-8.539-4.324-14.707-4.324-9.68 0-17.129 2.75-22.347 8.254-3.825 4.066-5.739 8.71-5.739 13.925 0 5.336 2.118 9.625 6.356 12.864 4.238 3.246 9.742 4.867 16.512 4.867 4.933 0 9.386-.93 13.355-2.785 3.969-1.852 7.14-4.633 9.512-8.344l-12.192-1.543c-2.53 3.543-6.058 5.312-10.582 5.312-2.75 0-5.082-.777-6.996-2.332-1.914-1.554-2.87-3.601-2.87-6.136 0-.215.015-.528.046-.934h34.16c.629-1.984.95-4.223.95-6.71zm-33.734.43c.793-3.133 2.3-5.504 4.531-7.106 2.23-1.601 4.754-2.406 7.567-2.406 2.816 0 5.062.707 6.738 2.117 1.676 1.414 2.516 3.532 2.516 6.356 0 .238-.02.586-.051 1.039zm0 0M442.434 166.352l1.757-6.28c3.383 4.784 8.68 7.175 15.891 7.175 3.04 0 5.941-.496 8.707-1.488 2.77-.993 5.41-2.512 7.922-4.559 2.516-2.043 4.523-4.7 6.027-7.965 1.5-3.265 2.254-6.633 2.254-10.105 0-5.14-1.597-9.059-4.793-11.754-3.195-2.692-7.449-4.035-12.762-4.035-2.562 0-4.925.304-7.093.914-2.164.61-4.5 1.632-6.996 3.07l4.886-17.586H444.57l-14.515 52.613zm11.054-28.066c2.469-2.39 5.41-3.59 8.824-3.59 2.625 0 4.864.774 6.715 2.316 1.852 1.543 2.774 3.668 2.774 6.372 0 2.773-.688 5.527-2.063 8.253-1.375 2.727-3.101 4.715-5.172 5.958-2.07 1.242-4.246 1.867-6.523 1.867-2.594 0-4.848-.801-6.758-2.407-1.914-1.601-2.87-3.683-2.87-6.246 0-5.07 1.69-9.246 5.073-12.523zm0 0" fill="none" stroke="#7a7878" stroke-width="3.5" stroke-linejoin="round" stroke-miterlimit="10"/></svg>