<?xml version="1.0" encoding="UTF-8" standalone="no"?>
<!-- Created with Inkscape (http://www.inkscape.org/) -->

<svg
   xmlns:dc="http://purl.org/dc/elements/1.1/"
   xmlns:cc="http://creativecommons.org/ns#"
   xmlns:rdf="http://www.w3.org/1999/02/22-rdf-syntax-ns#"
   xmlns:svg="http://www.w3.org/2000/svg"
   xmlns="http://www.w3.org/2000/svg"
   xmlns:sodipodi="http://sodipodi.sourceforge.net/DTD/sodipodi-0.dtd"
   xmlns:inkscape="http://www.inkscape.org/namespaces/inkscape"
   width="120mm"
   height="120mm"
   viewBox="0 0 120 120"
   version="1.1"
   id="svg8"
   inkscape:version="0.92.2 (5c3e80d, 2017-08-06)"
   sodipodi:docname="snow-enable.svg">
  <defs
     id="defs2" />
  <sodipodi:namedview
     id="base"
     pagecolor="#ffffff"
     bordercolor="#666666"
     borderopacity="1.0"
     inkscape:pageopacity="0.0"
     inkscape:pageshadow="2"
     inkscape:zoom="1.4"
     inkscape:cx="208.10846"
     inkscape:cy="275.94703"
     inkscape:document-units="mm"
     inkscape:current-layer="layer1"
     showgrid="false"
     inkscape:lockguides="false"
     inkscape:window-width="1920"
     inkscape:window-height="1017"
     inkscape:window-x="1672"
     inkscape:window-y="-8"
     inkscape:window-maximized="1" />
  <metadata
     id="metadata5">
    <rdf:RDF>
      <cc:Work
         rdf:about="">
        <dc:format>image/svg+xml</dc:format>
        <dc:type
           rdf:resource="http://purl.org/dc/dcmitype/StillImage" />
        <dc:title></dc:title>
      </cc:Work>
    </rdf:RDF>
  </metadata>
  <g
     inkscape:label="Ebene 1"
     inkscape:groupmode="layer"
     id="layer1"
     transform="translate(0,-177)">
    <g
       id="g940"
       transform="matrix(0.28056919,0,0,0.28056919,19.534725,222.46832)">
      <path
         id="path885"
         d="m 342.58252,41.070283 h -55.923 l 31.582,-54.697 -12.99,-7.5 -35.912,62.197 h -86.755 c -1.614,-7.839 -5.706,-14.784 -11.418,-19.977 l 43.318,-75.034 h 71.815 v -15 h -63.156 l 27.965,-48.439003 -12.99,-7.5 -27.965,48.439003 -31.581,-54.704003 -12.99,7.5 35.911,62.205003 -43.236,74.892 c -3.781,-1.301 -7.831,-2.017 -12.048,-2.017 -3.95,0 -7.755,0.626 -11.329,1.773 l -43.100001,-74.653 35.907001,-62.194003 -12.99,-7.5 -31.577001,54.693003 -27.963,-48.434003 -12.99,7.5 27.963,48.435003 -63.1669997,-0.002 -10e-4,15 71.8279997,0.003 43.035001,74.541 c -6.008,5.243 -10.325,12.378 -11.992,20.474 H 23.931519 l -35.909,-62.197 -12.99,7.5 31.5800003,54.697 H -49.317481 v 15 H 6.6075193 l -31.5830003,54.698997 12.99,7.5 35.913,-62.198997 h 85.906001 c 1.667,8.096 5.983,15.231 11.991,20.475 L 78.790519,151.08428 H 6.9675193 v 15 H 70.132519 l -27.964,48.437 12.99,7.5 27.96,-48.43 31.577001,54.696 12.99,-7.5 -35.907001,-62.197 43.102001,-74.656997 c 3.574,1.148 7.379,1.774 11.33,1.774 4.217,0 8.268,-0.716 12.049,-2.017 l 43.233,74.886997 -35.913,62.204 12.99,7.5 31.583,-54.703 27.966,48.442 12.99,-7.5 -27.961,-48.433 63.155,0.002 10e-4,-15 -71.816,-0.003 -43.32,-75.037997 c 5.712,-5.193 9.804,-12.139 11.418,-19.978 h 86.749 l 35.911,62.198997 12.99,-7.5 -31.581,-54.698997 h 55.928 z m -218.51,7.501 c 0,-12.206 9.931,-22.136 22.137,-22.136 12.206,0 22.136,9.93 22.136,22.136 0,12.206 -9.93,22.137 -22.136,22.137 -12.206,0 -22.137,-9.931 -22.137,-22.137 z"
         style="fill:#008db3;stroke:#0fa1f1;stroke-width:16.87559128;stroke-miterlimit:4;stroke-dasharray:none;stroke-opacity:1"
         inkscape:connector-curvature="0" />
      <g
         id="g887" />
      <g
         id="g889" />
      <g
         id="g891" />
      <g
         id="g893" />
      <g
         id="g895" />
      <g
         id="g897" />
      <g
         id="g899" />
      <g
         id="g901" />
      <g
         id="g903" />
      <g
         id="g905" />
      <g
         id="g907" />
      <g
         id="g909" />
      <g
         id="g911" />
      <g
         id="g913" />
      <g
         id="g915" />
    </g>
  </g>
</svg>
