<svg xmlns="http://www.w3.org/2000/svg" width="120mm" height="120mm" viewBox="0 0 120 120"><g transform="translate(0 -177)"><circle cx="60.156" cy="236.933" r="52.639" fill="none" stroke="#f60000" stroke-width="14.131" stroke-linejoin="round"/><path d="M115.653 233.991h-15.69l8.86-15.346-3.644-2.104-10.076 17.45h-24.34c-.454-2.199-1.602-4.148-3.204-5.605l12.153-21.052 12.212-.756 7.938-3.452h-17.72l7.846-13.59-3.645-2.105-7.846 13.59-8.86-15.348-3.645 2.104 10.076 17.453-12.131 21.013a10.368 10.368 0 00-6.559-.069L45.286 205.23l10.074-17.45-3.645-2.104-8.86 15.345-7.845-13.59-3.644 2.105 7.845 13.59-17.723-.001v4.209h20.153l12.074 20.914a10.422 10.422 0 00-3.364 5.745H26.249l-10.075-17.45-3.644 2.103 8.86 15.347H5.698v4.208h15.69l-8.86 15.347 3.644 2.104 10.076-17.45h24.103a10.423 10.423 0 003.364 5.744L41.64 264.858l-11.458 1.89-8.693 2.318h17.722l-7.846 13.59 3.645 2.105 7.844-13.588 8.86 15.346 3.644-2.105-10.074-17.45 12.093-20.947a10.375 10.375 0 006.56-.068l12.13 21.011-10.077 17.453 3.645 2.104 8.861-15.348 7.846 13.591 3.645-2.104-7.845-13.589h17.72v-4.208h-20.15L67.56 243.804a10.422 10.422 0 003.204-5.605h24.339l10.075 17.451 3.645-2.104-8.86-15.347h15.69zm-61.307 2.105a6.218 6.218 0 016.21-6.21 6.218 6.218 0 016.211 6.21 6.218 6.218 0 01-6.21 6.21 6.218 6.218 0 01-6.211-6.21z" fill="#008db3" stroke="#0fa1f1" stroke-width="4.73489932"/><rect width="112.469" height="13.758" x="-180.359" y="203.381" ry="0" transform="rotate(-45)" fill="#f60000"/></g></svg>