<svg xmlns="http://www.w3.org/2000/svg" width="120mm" height="120mm" viewBox="0 0 120 120"><path d="M115.653 56.991h-15.69l8.86-15.346-3.644-2.104-10.076 17.45h-24.34c-.454-2.199-1.602-4.148-3.204-5.605l12.153-21.052h20.15v-4.208h-17.72l7.846-13.59-3.645-2.105-7.846 13.59-8.86-15.348-3.645 2.104L76.068 28.23 63.937 49.243a10.368 10.368 0 00-6.559-.069L45.286 28.23l10.074-17.45-3.645-2.104-8.86 15.345-7.845-13.59-3.644 2.105 7.845 13.59-17.723-.001v4.209h20.153l12.074 20.914a10.422 10.422 0 00-3.364 5.745H26.249l-10.075-17.45-3.644 2.103 8.86 15.347H5.698V61.2h15.69l-8.86 15.347 3.644 2.104 10.076-17.45h24.103a10.423 10.423 0 003.364 5.744L41.64 87.858H21.49v4.208h17.722l-7.846 13.59 3.645 2.105 7.844-13.588 8.86 15.346 3.644-2.105-10.074-17.45 12.093-20.947a10.375 10.375 0 006.56-.068l12.13 21.011-10.077 17.453 3.645 2.104 8.861-15.348 7.846 13.591 3.645-2.104-7.845-13.589h17.72V87.86h-20.15L67.56 66.804a10.422 10.422 0 003.204-5.605h24.339l10.075 17.451 3.645-2.104-8.86-15.347h15.69zm-61.307 2.105a6.218 6.218 0 016.21-6.21 6.218 6.218 0 016.211 6.21 6.218 6.218 0 01-6.21 6.21 6.218 6.218 0 01-6.211-6.21z" fill="#008db3" stroke="#0fa1f1" stroke-width="4.73489932"/></svg>